Simulation
nRows=15
nColumns=15
endheader
time  TH_x TH_y TH_z SC_y  SC_z  SC_x  AC_y  AC_z  AC_x  GH_y  GH_z  GH_yy  EL_x  PS_y
0.0  0.000000  0.000000  0.000000  -21.516919879377145  6.5719154840982155  -9.481595459690265  55.66509847264771  8.532759191954053  10.346910173330146  -167.61143535679693  3.188044907695587  -154.74973835983806  21.05487030906883  120.000000
0.04016479400749064  0.000000  0.000000  0.000000  -21.518508061533982  6.5791857750482965  -9.491048074969255  55.622512326431156  8.57527863430115  10.329331063871207  -166.76636893779246  3.0406132047682646  -155.7012127512108  20.414756451056174  120.000000
0.08032958801498127  0.000000  0.000000  0.000000  -21.52025586415635  6.600202208604357  -9.513551151156978  55.488897511573285  8.700607238130448  10.274988289318117  -163.52729453286938  2.595315178727393  -159.26953784426817  19.82998169530186  120.000000
0.12049438202247191  0.000000  0.000000  0.000000  -21.525243860798494  6.638444415186113  -9.54720674761137  55.25939668538429  8.896635536851791  10.183687866700785  -154.68176788234365  1.8794947811062523  -168.6838860688169  19.27239107092197  120.000000
0.16065917602996255  0.000000  0.000000  0.000000  -21.54371016178454  6.693836729164482  -9.599868222734429  54.93493930860613  9.14335802558878  10.057663180857181  -123.96955176366569  1.0902111158754462  159.79082502617652  18.719994623567157  120.000000
0.20082397003745317  0.000000  0.000000  0.000000  -21.592796357041884  6.762891528069561  -9.67918940077491  54.51809817253266  9.421782677792509  9.899812301686799  -54.2054597728328  1.2903618166676443  88.97387884363945  18.1545563186301  120.000000
0.24098876404494382  0.000000  0.000000  0.000000  -21.69829549914823  6.84409121642121  -9.788880342446992  54.018028755668944  9.716815339714827  9.715905722908785  -27.572673738778157  2.668283638564015  61.062502900338494  17.567847156463458  120.000000
0.28115355805243447  0.000000  0.000000  0.000000  -21.882622230700836  6.93422172226794  -9.924327449535697  53.448454580368384  10.018149938196391  9.51463774117245  -19.304701020112578  4.445304663315261  51.31453963416891  16.95950451576839  120.000000
0.3213183520599251  0.000000  0.000000  0.000000  -22.166348173137923  7.032862500010917  -10.073470984425846  52.8297390225459  10.32218964056111  9.30288141384632  -15.66210346878534  6.460021268831044  46.019701601634374  16.3357179870475  120.000000
0.3614831460674157  0.000000  0.000000  0.000000  -22.561334393054665  7.1418205557401695  -10.218669824260932  52.1847680583361  10.63127083260732  9.084044602317457  -13.724383759614557  8.663564926139664  42.28981988201814  15.706455482507568  120.000000
0.40164794007490634  0.000000  0.000000  0.000000  -23.068113224634605  7.263942043926374  -10.339094563813187  51.53412704810665  10.94954483833772  8.860723010948428  -12.609997206014889  11.02522221126734  39.27692843493138  15.081505678865394  120.000000
0.441812734082397  0.000000  0.000000  0.000000  -23.681988377635165  7.4012823319785594  -10.412712146449913  50.89612923534285  11.280756076531828  8.635370834532816  -11.969644427704166  13.519144456675285  36.66587404567235  14.470922990513543  120.000000
0.48197752808988764  0.000000  0.000000  0.000000  -24.39253382839534  7.554660017411507  -10.417131510639656  50.286941199136024  11.625517981842421  8.408201847744337  -11.638694582772994  16.120327642297973  34.32505114777435  13.88264306980334  120.000000
0.5221423220973783  0.000000  0.000000  0.000000  -25.18722383478123  7.724883012081441  -10.331603618645994  49.72198881093344  11.979722237445023  8.177023365409351  -11.524721978820521  18.803920639165415  32.1936727041082  13.322940504010756  120.000000
0.5623071161048689  0.000000  0.000000  0.000000  -26.052343343165706  7.911559138761358  -10.138391831155259  49.21391449362418  12.334970519318091  7.9393087624943535  -11.565068483770784  21.544264265441484  30.23827816596989  12.795857173113111  120.000000
